<svg width="121" height="12" viewBox="0 0 121 12" fill="none" xmlns="http://www.w3.org/2000/svg">
<path d="M10.2426 10.2426C9.40353 11.0818 8.33443 11.6532 7.17054 11.8847C6.00666 12.1162 4.80026 11.9974 3.7039 11.5433C2.60754 11.0892 1.67047 10.3201 1.01118 9.33342C0.351894 8.34673 7.30867e-08 7.18669 0 6C-7.30867e-08 4.81331 0.351894 3.65327 1.01118 2.66658C1.67047 1.67988 2.60754 0.910849 3.7039 0.456723C4.80026 0.00259715 6.00666 -0.116223 7.17054 0.115288C8.33443 0.346799 9.40352 0.918244 10.2426 1.75736L8.82857 3.17143C8.26913 2.61199 7.55636 2.23101 6.7804 2.07666C6.00444 1.92231 5.20013 2.00153 4.46919 2.3043C3.73825 2.60706 3.1135 3.11978 2.67395 3.77761C2.23441 4.43544 1.9998 5.20884 1.9998 6C1.9998 6.79117 2.23441 7.56456 2.67396 8.22239C3.1135 8.88022 3.73825 9.39294 4.46919 9.6957C5.20013 9.99847 6.00444 10.0777 6.7804 9.92334C7.55636 9.76899 8.26913 9.38801 8.82857 8.82857L10.2426 10.2426Z" fill="#FF7504"/>
<path fill-rule="evenodd" clip-rule="evenodd" d="M12 0H20V2H17V10H20V12H12V10H15V2H12V0Z" fill="#FF7504"/>
<path fill-rule="evenodd" clip-rule="evenodd" d="M24 0H22V12H24H27.5C28.4283 12 29.3185 11.6313 29.9749 10.9749C30.6313 10.3185 31 9.42825 31 8.5C31 7.57175 30.6312 6.68149 29.9749 6.02512L29.9495 6L29.9749 5.97488C30.6313 5.31848 31 4.42825 31 3.5C31 2.57175 30.6312 1.68149 29.9749 1.02512C29.3185 0.368744 28.4283 0 27.5 0H24ZM27.5 10.005C27.8992 10.005 28.282 9.84644 28.5642 9.56421C28.8464 9.28195 29.005 8.89914 29.005 8.5C29.005 8.10086 28.8464 7.71805 28.5642 7.43579C28.3062 7.17786 27.9643 7.02319 27.6026 6.9985C27.5685 6.99951 27.5343 7 27.5 7H24V10H27.5V10.005ZM27.5 5H24V2H27.5V1.995C27.8991 1.995 28.282 2.15356 28.5642 2.43579C28.8464 2.71805 29.005 3.10086 29.005 3.5C29.005 3.89914 28.8464 4.28195 28.5642 4.56421C28.3062 4.82214 27.9643 4.97681 27.6026 5.0015C27.5789 5.00079 27.5552 5.00034 27.5315 5.00015L27.5 5Z" fill="#FF7504"/>
<path fill-rule="evenodd" clip-rule="evenodd" d="M35 0H33V12H35H41V10H35V7H41V5H35V2H41V0H35Z" fill="#FF7504"/>
<path fill-rule="evenodd" clip-rule="evenodd" d="M43 0H45H48.5C49.4283 0 50.3185 0.368748 50.9749 1.02513C51.6312 1.6815 52 2.57174 52 3.5C52 4.42825 51.6313 5.31849 50.9749 5.97487C50.8015 6.14822 50.6119 6.30151 50.4095 6.43324L52 12H50L48.5712 6.99928C48.5475 6.99976 48.5238 7 48.5 7L48.5 6.75002L48.5 6.74999V7H45V12H43V0ZM48 5H48.5H48.6226C48.9769 4.97105 49.311 4.81739 49.5642 4.56419C49.8464 4.28195 50.005 3.89915 50.005 3.5C50.005 3.10085 49.8464 2.71805 49.5642 2.4358C49.282 2.15356 48.8992 1.995 48.5 1.995V2H45V5H48Z" fill="#FF7504"/>
<rect x="54" y="10" width="8" height="2" fill="#FF7504"/>
<path fill-rule="evenodd" clip-rule="evenodd" d="M70 0H62V2H65V12H67V2H70V0Z" fill="#FF7504"/>
<path fill-rule="evenodd" clip-rule="evenodd" d="M72 0H74V8C74 8.26263 74.0517 8.52271 74.1522 8.76538C74.2527 9.00803 74.4001 9.22849 74.5858 9.41422C74.7715 9.59995 74.992 9.74725 75.2346 9.84775C75.4773 9.94827 75.7374 10 76 10C76.2626 10 76.5227 9.94827 76.7654 9.84775C77.008 9.74725 77.2285 9.59995 77.4142 9.41422C77.5999 9.22849 77.7473 9.00803 77.8478 8.76538C77.9483 8.52271 78 8.26263 78 8V0H80V8C80 8.5253 79.8965 9.04544 79.6955 9.53073C79.4945 10.016 79.1999 10.457 78.8284 10.8284C78.457 11.1999 78.016 11.4945 77.5307 11.6955C77.0454 11.8965 76.5253 12 76 12C75.4747 12 74.9546 11.8965 74.4693 11.6955C73.984 11.4945 73.543 11.1999 73.1716 10.8284C72.8001 10.457 72.5055 10.016 72.3045 9.53073C72.1035 9.04544 72 8.5253 72 8V0Z" fill="#FF7504"/>
<path fill-rule="evenodd" clip-rule="evenodd" d="M82 0H84H87.5C88.4283 0 89.3185 0.368748 89.9749 1.02513C90.6312 1.6815 91 2.57174 91 3.5C91 4.42825 90.6313 5.31849 89.9749 5.97487C89.8015 6.14822 89.6119 6.30151 89.4095 6.43324L91 12H89L87.5712 6.99928C87.5475 6.99976 87.5238 7 87.5 7L87.5 6.75002L87.5 6.74999V7H84V12H82V0ZM87 5H87.5H87.6226C87.9769 4.97105 88.311 4.81739 88.5642 4.56419C88.8464 4.28195 89.005 3.89915 89.005 3.5C89.005 3.10085 88.8464 2.71805 88.5642 2.4358C88.282 2.15356 87.8992 1.995 87.5 1.995V2H84V5H87Z" fill="#FF7504"/>
<path fill-rule="evenodd" clip-rule="evenodd" d="M101 0H93V2H96V12H98V2H101V0Z" fill="#FF7504"/>
<path fill-rule="evenodd" clip-rule="evenodd" d="M105 0H103V12H105H111V10H105V0Z" fill="#FF7504"/>
<path fill-rule="evenodd" clip-rule="evenodd" d="M115 0H113V12H115H121V10H115V7H121V5H115V2H121V0H115Z" fill="#FF7504"/>
</svg>
